<?xml version="1.0" encoding="utf-8"?>
<!-- Generator: Adobe Illustrator 21.0.0, SVG Export Plug-In . SVG Version: 6.00 Build 0)  -->
<svg version="1.1" id="Capa_1" xmlns="http://www.w3.org/2000/svg" xmlns:xlink="http://www.w3.org/1999/xlink" x="0px" y="0px"
	 viewBox="0 0 163.9 41.8" style="enable-background:new 0 0 163.9 41.8;" xml:space="preserve">
<style type="text/css">
	.st0{fill:#D9D9D9;}
	.st1{fill:#616160;}
	.st2{fill:#9E4291;}
	.st3{fill:#43AA34;}
	.st4{fill:#9D4290;}
</style>
<g id="XMLID_207_">
	<g id="XMLID_208_">
		<g id="XMLID_209_">
			<path class="st0" d="M17.5,39.5c-1.2,0-2.4-0.3-3.4-0.9l-9.4-5.4C2.4,31.8,1,29.4,1,26.7V15.6c0-2.3,1.2-4.4,3.2-5.6l9.7-5.6
				c2.3-1.3,5.1-1.3,7.3,0l8.5,4.9c2.7,1.6,4.4,4.4,4.4,7.6v10c0,2.5-1.3,4.8-3.5,6.1L21,38.6C19.9,39.2,18.7,39.5,17.5,39.5z
				 M17.5,6c-0.8,0-1.7,0.2-2.4,0.6l-9.7,5.6c-1.2,0.7-2,2-2,3.4v11.1c0,1.7,0.9,3.4,2.5,4.2l9.4,5.4c1.4,0.8,3,0.8,4.4,0l9.6-5.5
				c1.4-0.8,2.3-2.3,2.3-3.9v-10c0-2.2-1.2-4.3-3.1-5.4L20,6.6C19.2,6.2,18.4,6,17.5,6z"/>
		</g>
	</g>
</g>
<g id="XMLID_204_">
	<g>
		<path class="st1" d="M47,31c0,0.1,0.1,0.2,0.1,0.3c0-0.1,0.1-0.2,0.1-0.3c0-0.1,0.1-0.2,0.1-0.2l2.3-4.1c0-0.1,0.1-0.1,0.1-0.1
			c0,0,0.1,0,0.2,0h0.7v6.7h-0.8v-5c0-0.1,0-0.1,0-0.2c0-0.1,0-0.2,0-0.2L47.5,32c-0.1,0.1-0.2,0.2-0.3,0.2h-0.1
			c-0.1,0-0.3-0.1-0.3-0.2l-2.4-4.2c0,0.1,0,0.2,0,0.2c0,0.1,0,0.2,0,0.2v5h-0.8v-6.7h0.7c0.1,0,0.1,0,0.2,0c0,0,0.1,0.1,0.1,0.1
			l2.3,4.2C47,30.8,47,30.9,47,31z"/>
	</g>
	<g>
		<path class="st1" d="M55.6,33.2h-0.4c-0.1,0-0.1,0-0.2,0C55,33.1,55,33.1,55,33l-0.1-0.4c-0.1,0.1-0.2,0.2-0.4,0.3
			c-0.1,0.1-0.2,0.2-0.4,0.2c-0.1,0.1-0.3,0.1-0.4,0.1c-0.1,0-0.3,0-0.5,0c-0.2,0-0.4,0-0.5-0.1c-0.2-0.1-0.3-0.1-0.4-0.2
			c-0.1-0.1-0.2-0.2-0.3-0.4c-0.1-0.2-0.1-0.3-0.1-0.6c0-0.2,0.1-0.4,0.2-0.5c0.1-0.2,0.3-0.3,0.5-0.5c0.2-0.1,0.5-0.2,0.9-0.3
			c0.4-0.1,0.8-0.1,1.4-0.1v-0.4c0-0.4-0.1-0.7-0.2-0.8c-0.2-0.2-0.4-0.3-0.7-0.3c-0.2,0-0.4,0-0.5,0.1c-0.1,0.1-0.3,0.1-0.4,0.2
			c-0.1,0.1-0.2,0.1-0.3,0.2c-0.1,0.1-0.1,0.1-0.2,0.1c-0.1,0-0.1,0-0.1,0c0,0-0.1-0.1-0.1-0.1l-0.2-0.3c0.3-0.3,0.5-0.4,0.9-0.6
			c0.3-0.1,0.6-0.2,1-0.2c0.3,0,0.5,0,0.7,0.1s0.4,0.2,0.5,0.4c0.1,0.2,0.2,0.3,0.3,0.6c0.1,0.2,0.1,0.5,0.1,0.7V33.2z M53.5,32.7
			c0.1,0,0.3,0,0.4,0c0.1,0,0.2-0.1,0.3-0.1c0.1-0.1,0.2-0.1,0.3-0.2c0.1-0.1,0.2-0.2,0.3-0.3v-1c-0.4,0-0.7,0-1,0.1
			s-0.5,0.1-0.7,0.2c-0.2,0.1-0.3,0.2-0.4,0.3c-0.1,0.1-0.1,0.2-0.1,0.4c0,0.1,0,0.2,0.1,0.3c0,0.1,0.1,0.2,0.2,0.2
			c0.1,0.1,0.2,0.1,0.2,0.1C53.2,32.7,53.3,32.7,53.5,32.7z M55.3,26.4l-1.1,1.2c0,0-0.1,0.1-0.1,0.1c0,0-0.1,0-0.2,0h-0.5l0.7-1.1
			c0-0.1,0.1-0.1,0.1-0.2c0.1,0,0.1,0,0.2,0H55.3z"/>
	</g>
	<g>
		<path class="st1" d="M59.6,29.2c0,0.1-0.1,0.1-0.2,0.1c0,0-0.1,0-0.2-0.1c-0.1,0-0.1-0.1-0.2-0.1c-0.1,0-0.2-0.1-0.3-0.1
			c-0.1,0-0.3-0.1-0.4-0.1c-0.1,0-0.3,0-0.4,0.1c-0.1,0-0.2,0.1-0.3,0.1c-0.1,0.1-0.1,0.1-0.2,0.2c0,0.1-0.1,0.2-0.1,0.3
			c0,0.1,0,0.2,0.1,0.3c0.1,0.1,0.2,0.2,0.3,0.2c0.1,0.1,0.2,0.1,0.4,0.2c0.1,0,0.3,0.1,0.5,0.1c0.2,0.1,0.3,0.1,0.5,0.2
			c0.1,0.1,0.3,0.1,0.4,0.2c0.1,0.1,0.2,0.2,0.3,0.3c0.1,0.1,0.1,0.3,0.1,0.5c0,0.2,0,0.4-0.1,0.6c-0.1,0.2-0.2,0.3-0.3,0.5
			c-0.2,0.1-0.3,0.2-0.6,0.3c-0.2,0.1-0.5,0.1-0.8,0.1c-0.3,0-0.6-0.1-0.9-0.2c-0.3-0.1-0.5-0.2-0.7-0.4l0.2-0.3
			c0,0,0.1-0.1,0.1-0.1c0,0,0.1,0,0.1,0c0.1,0,0.1,0,0.2,0.1c0.1,0,0.1,0.1,0.2,0.1c0.1,0.1,0.2,0.1,0.3,0.1c0.1,0,0.3,0.1,0.5,0.1
			c0.2,0,0.3,0,0.4-0.1c0.1,0,0.2-0.1,0.3-0.2c0.1-0.1,0.1-0.2,0.2-0.2c0-0.1,0.1-0.2,0.1-0.3c0-0.1,0-0.2-0.1-0.3
			c-0.1-0.1-0.2-0.2-0.3-0.2c-0.1-0.1-0.2-0.1-0.4-0.2c-0.1,0-0.3-0.1-0.5-0.1c-0.2-0.1-0.3-0.1-0.5-0.2c-0.1-0.1-0.3-0.1-0.4-0.2
			c-0.1-0.1-0.2-0.2-0.3-0.4c-0.1-0.1-0.1-0.3-0.1-0.5c0-0.2,0-0.4,0.1-0.5c0.1-0.2,0.2-0.3,0.3-0.4c0.1-0.1,0.3-0.2,0.5-0.3
			c0.2-0.1,0.5-0.1,0.7-0.1c0.3,0,0.6,0,0.8,0.1c0.2,0.1,0.5,0.2,0.6,0.4L59.6,29.2z"/>
	</g>
	<g>
		<path class="st1" d="M66.2,33.2c-0.1,0-0.2-0.1-0.2-0.2l-0.1-0.6c-0.2,0.2-0.4,0.4-0.7,0.6c-0.3,0.1-0.6,0.2-0.9,0.2
			c-0.3,0-0.5-0.1-0.7-0.2c-0.2-0.1-0.4-0.3-0.6-0.5c-0.2-0.2-0.3-0.5-0.4-0.8c-0.1-0.3-0.1-0.7-0.1-1.1c0-0.4,0-0.7,0.1-1
			c0.1-0.3,0.2-0.6,0.4-0.8c0.2-0.2,0.4-0.4,0.6-0.5c0.3-0.1,0.5-0.2,0.9-0.2c0.3,0,0.5,0,0.7,0.1c0.2,0.1,0.4,0.2,0.6,0.4v-2.6h0.8
			v6.9H66.2z M64.5,32.6c0.3,0,0.5-0.1,0.7-0.2c0.2-0.1,0.4-0.3,0.6-0.5v-2.3c-0.2-0.2-0.3-0.4-0.5-0.4C65.1,29,64.9,29,64.7,29
			c-0.4,0-0.8,0.2-1,0.5c-0.2,0.3-0.4,0.8-0.4,1.4c0,0.3,0,0.6,0.1,0.8c0.1,0.2,0.1,0.4,0.2,0.5c0.1,0.1,0.2,0.2,0.4,0.3
			C64.2,32.6,64.3,32.6,64.5,32.6z"/>
	</g>
	<g>
		<path class="st1" d="M71.6,33.2h-0.4c-0.1,0-0.1,0-0.2,0c-0.1,0-0.1-0.1-0.1-0.2l-0.1-0.4c-0.1,0.1-0.2,0.2-0.4,0.3
			c-0.1,0.1-0.2,0.2-0.4,0.2c-0.1,0.1-0.3,0.1-0.4,0.1c-0.1,0-0.3,0-0.5,0c-0.2,0-0.4,0-0.5-0.1c-0.2-0.1-0.3-0.1-0.4-0.2
			c-0.1-0.1-0.2-0.2-0.3-0.4c-0.1-0.2-0.1-0.3-0.1-0.6c0-0.2,0.1-0.4,0.2-0.5c0.1-0.2,0.3-0.3,0.5-0.5c0.2-0.1,0.5-0.2,0.9-0.3
			c0.4-0.1,0.8-0.1,1.4-0.1v-0.4c0-0.4-0.1-0.7-0.2-0.8c-0.2-0.2-0.4-0.3-0.7-0.3c-0.2,0-0.4,0-0.5,0.1s-0.3,0.1-0.4,0.2
			c-0.1,0.1-0.2,0.1-0.3,0.2c-0.1,0.1-0.1,0.1-0.2,0.1c-0.1,0-0.1,0-0.1,0c0,0-0.1-0.1-0.1-0.1L68,29.1c0.3-0.3,0.5-0.4,0.9-0.6
			c0.3-0.1,0.6-0.2,1-0.2c0.3,0,0.5,0,0.7,0.1c0.2,0.1,0.4,0.2,0.5,0.4c0.1,0.2,0.2,0.3,0.3,0.6c0.1,0.2,0.1,0.5,0.1,0.7V33.2z
			 M69.4,32.7c0.1,0,0.3,0,0.4,0c0.1,0,0.2-0.1,0.3-0.1c0.1-0.1,0.2-0.1,0.3-0.2c0.1-0.1,0.2-0.2,0.3-0.3v-1c-0.4,0-0.7,0-1,0.1
			c-0.3,0-0.5,0.1-0.7,0.2c-0.2,0.1-0.3,0.2-0.4,0.3c-0.1,0.1-0.1,0.2-0.1,0.4c0,0.1,0,0.2,0.1,0.3c0,0.1,0.1,0.2,0.2,0.2
			c0.1,0.1,0.2,0.1,0.2,0.1C69.2,32.7,69.3,32.7,69.4,32.7z"/>
	</g>
	<g>
		<path class="st1" d="M74.2,33.3c-0.4,0-0.7-0.1-0.9-0.3c-0.2-0.2-0.3-0.5-0.3-0.9v-2.9h-0.6c-0.1,0-0.1,0-0.1,0
			c0,0-0.1-0.1-0.1-0.1v-0.3l0.8-0.1l0.2-1.5c0,0,0-0.1,0.1-0.1c0,0,0.1,0,0.1,0h0.4v1.6h1.4v0.6h-1.4V32c0,0.2,0,0.4,0.1,0.4
			c0.1,0.1,0.2,0.1,0.4,0.1c0.1,0,0.2,0,0.2,0c0.1,0,0.1,0,0.2-0.1c0,0,0.1-0.1,0.1-0.1c0,0,0.1,0,0.1,0c0,0,0.1,0,0.1,0.1l0.2,0.4
			c-0.1,0.1-0.3,0.2-0.5,0.3C74.7,33.2,74.5,33.3,74.2,33.3z"/>
	</g>
	<g>
		<path class="st1" d="M78.2,28.4c0.3,0,0.7,0.1,0.9,0.2s0.5,0.3,0.7,0.5c0.2,0.2,0.3,0.5,0.5,0.8c0.1,0.3,0.2,0.6,0.2,1
			c0,0.4-0.1,0.7-0.2,1c-0.1,0.3-0.3,0.6-0.5,0.8c-0.2,0.2-0.4,0.4-0.7,0.5c-0.3,0.1-0.6,0.2-0.9,0.2s-0.7-0.1-0.9-0.2
			c-0.3-0.1-0.5-0.3-0.7-0.5c-0.2-0.2-0.4-0.5-0.5-0.8c-0.1-0.3-0.2-0.6-0.2-1c0-0.4,0.1-0.7,0.2-1c0.1-0.3,0.3-0.6,0.5-0.8
			c0.2-0.2,0.4-0.4,0.7-0.5S77.8,28.4,78.2,28.4z M78.2,32.6c0.5,0,0.8-0.2,1.1-0.5c0.2-0.3,0.3-0.8,0.3-1.3c0-0.6-0.1-1-0.3-1.3
			C79,29.2,78.7,29,78.2,29c-0.2,0-0.4,0-0.6,0.1c-0.2,0.1-0.3,0.2-0.4,0.4c-0.1,0.2-0.2,0.3-0.3,0.6s-0.1,0.5-0.1,0.8
			s0,0.5,0.1,0.8s0.1,0.4,0.3,0.6c0.1,0.2,0.3,0.3,0.4,0.4C77.7,32.6,78,32.6,78.2,32.6z"/>
	</g>
	<g>
		<path class="st1" d="M84.2,29.2c0,0.1-0.1,0.1-0.2,0.1c0,0-0.1,0-0.2-0.1c-0.1,0-0.1-0.1-0.2-0.1c-0.1,0-0.2-0.1-0.3-0.1
			c-0.1,0-0.3-0.1-0.4-0.1c-0.1,0-0.3,0-0.4,0.1c-0.1,0-0.2,0.1-0.3,0.1c-0.1,0.1-0.1,0.1-0.2,0.2c0,0.1-0.1,0.2-0.1,0.3
			c0,0.1,0,0.2,0.1,0.3c0.1,0.1,0.2,0.2,0.3,0.2c0.1,0.1,0.2,0.1,0.4,0.2s0.3,0.1,0.5,0.1c0.2,0.1,0.3,0.1,0.5,0.2
			c0.1,0.1,0.3,0.1,0.4,0.2c0.1,0.1,0.2,0.2,0.3,0.3c0.1,0.1,0.1,0.3,0.1,0.5c0,0.2,0,0.4-0.1,0.6c-0.1,0.2-0.2,0.3-0.3,0.5
			c-0.2,0.1-0.3,0.2-0.6,0.3c-0.2,0.1-0.5,0.1-0.8,0.1c-0.3,0-0.6-0.1-0.9-0.2c-0.3-0.1-0.5-0.2-0.7-0.4l0.2-0.3
			c0,0,0.1-0.1,0.1-0.1c0,0,0.1,0,0.1,0s0.1,0,0.2,0.1c0.1,0,0.1,0.1,0.2,0.1c0.1,0.1,0.2,0.1,0.3,0.1c0.1,0,0.3,0.1,0.5,0.1
			c0.2,0,0.3,0,0.4-0.1c0.1,0,0.2-0.1,0.3-0.2c0.1-0.1,0.1-0.2,0.2-0.2c0-0.1,0.1-0.2,0.1-0.3c0-0.1,0-0.2-0.1-0.3
			c-0.1-0.1-0.2-0.2-0.3-0.2c-0.1-0.1-0.2-0.1-0.4-0.2c-0.1,0-0.3-0.1-0.5-0.1c-0.2-0.1-0.3-0.1-0.5-0.2c-0.1-0.1-0.3-0.1-0.4-0.2
			c-0.1-0.1-0.2-0.2-0.3-0.4c-0.1-0.1-0.1-0.3-0.1-0.5c0-0.2,0-0.4,0.1-0.5c0.1-0.2,0.2-0.3,0.3-0.4c0.1-0.1,0.3-0.2,0.5-0.3
			c0.2-0.1,0.5-0.1,0.7-0.1c0.3,0,0.6,0,0.8,0.1c0.2,0.1,0.5,0.2,0.6,0.4L84.2,29.2z"/>
	</g>
	<g>
		<path class="st1" d="M87.4,34.8v-6.4h0.5c0.1,0,0.2,0.1,0.2,0.2l0.1,0.6c0.2-0.2,0.4-0.4,0.7-0.6c0.3-0.2,0.6-0.2,0.9-0.2
			c0.3,0,0.5,0.1,0.7,0.2c0.2,0.1,0.4,0.3,0.6,0.5c0.2,0.2,0.3,0.5,0.4,0.8c0.1,0.3,0.1,0.7,0.1,1.1c0,0.4,0,0.7-0.1,1
			c-0.1,0.3-0.2,0.6-0.4,0.8c-0.2,0.2-0.4,0.4-0.6,0.5c-0.3,0.1-0.5,0.2-0.9,0.2c-0.3,0-0.5,0-0.8-0.1c-0.2-0.1-0.4-0.2-0.6-0.4v2.1
			H87.4z M89.5,29c-0.3,0-0.5,0.1-0.7,0.2c-0.2,0.1-0.4,0.3-0.6,0.5v2.3c0.2,0.2,0.3,0.4,0.5,0.4c0.2,0.1,0.4,0.1,0.6,0.1
			c0.4,0,0.8-0.2,1-0.5c0.2-0.3,0.4-0.8,0.4-1.4c0-0.3,0-0.6-0.1-0.8c-0.1-0.2-0.1-0.4-0.2-0.5c-0.1-0.1-0.2-0.2-0.4-0.3
			C89.9,29.1,89.7,29,89.5,29z"/>
	</g>
	<g>
		<path class="st1" d="M96.1,33.2h-0.4c-0.1,0-0.1,0-0.2,0c-0.1,0-0.1-0.1-0.1-0.2l-0.1-0.4c-0.1,0.1-0.2,0.2-0.4,0.3
			c-0.1,0.1-0.2,0.2-0.4,0.2c-0.1,0.1-0.3,0.1-0.4,0.1c-0.1,0-0.3,0-0.5,0c-0.2,0-0.4,0-0.5-0.1c-0.2-0.1-0.3-0.1-0.4-0.2
			c-0.1-0.1-0.2-0.2-0.3-0.4c-0.1-0.2-0.1-0.3-0.1-0.6c0-0.2,0.1-0.4,0.2-0.5c0.1-0.2,0.3-0.3,0.5-0.5c0.2-0.1,0.5-0.2,0.9-0.3
			c0.4-0.1,0.8-0.1,1.4-0.1v-0.4c0-0.4-0.1-0.7-0.2-0.8c-0.2-0.2-0.4-0.3-0.7-0.3c-0.2,0-0.4,0-0.5,0.1c-0.1,0.1-0.3,0.1-0.4,0.2
			c-0.1,0.1-0.2,0.1-0.3,0.2c-0.1,0.1-0.1,0.1-0.2,0.1c-0.1,0-0.1,0-0.1,0c0,0-0.1-0.1-0.1-0.1l-0.2-0.3c0.3-0.3,0.5-0.4,0.9-0.6
			c0.3-0.1,0.6-0.2,1-0.2c0.3,0,0.5,0,0.7,0.1c0.2,0.1,0.4,0.2,0.5,0.4c0.1,0.2,0.2,0.3,0.3,0.6c0.1,0.2,0.1,0.5,0.1,0.7V33.2z
			 M93.9,32.7c0.1,0,0.3,0,0.4,0c0.1,0,0.2-0.1,0.3-0.1c0.1-0.1,0.2-0.1,0.3-0.2c0.1-0.1,0.2-0.2,0.3-0.3v-1c-0.4,0-0.7,0-1,0.1
			s-0.5,0.1-0.7,0.2c-0.2,0.1-0.3,0.2-0.4,0.3c-0.1,0.1-0.1,0.2-0.1,0.4c0,0.1,0,0.2,0.1,0.3c0,0.1,0.1,0.2,0.2,0.2s0.2,0.1,0.2,0.1
			C93.7,32.7,93.8,32.7,93.9,32.7z"/>
	</g>
	<g>
		<path class="st1" d="M97.4,33.2v-4.8h0.5c0.1,0,0.2,0,0.2,0.1c0,0,0.1,0.1,0.1,0.2l0.1,0.7c0.2-0.3,0.4-0.6,0.6-0.8
			c0.2-0.2,0.5-0.3,0.8-0.3c0.1,0,0.3,0,0.4,0c0.1,0,0.2,0.1,0.3,0.1l-0.1,0.6c0,0.1-0.1,0.1-0.1,0.1c0,0-0.1,0-0.2,0
			c-0.1,0-0.2,0-0.4,0c-0.3,0-0.5,0.1-0.7,0.3c-0.2,0.2-0.4,0.4-0.5,0.7v3H97.4z"/>
	</g>
	<g>
		<path class="st1" d="M104.6,33.2h-0.4c-0.1,0-0.1,0-0.2,0c-0.1,0-0.1-0.1-0.1-0.2l-0.1-0.4c-0.1,0.1-0.2,0.2-0.4,0.3
			c-0.1,0.1-0.2,0.2-0.4,0.2c-0.1,0.1-0.3,0.1-0.4,0.1c-0.1,0-0.3,0-0.5,0c-0.2,0-0.4,0-0.5-0.1c-0.2-0.1-0.3-0.1-0.4-0.2
			c-0.1-0.1-0.2-0.2-0.3-0.4c-0.1-0.2-0.1-0.3-0.1-0.6c0-0.2,0.1-0.4,0.2-0.5c0.1-0.2,0.3-0.3,0.5-0.5c0.2-0.1,0.5-0.2,0.9-0.3
			c0.4-0.1,0.8-0.1,1.4-0.1v-0.4c0-0.4-0.1-0.7-0.2-0.8c-0.2-0.2-0.4-0.3-0.7-0.3c-0.2,0-0.4,0-0.5,0.1c-0.1,0.1-0.3,0.1-0.4,0.2
			c-0.1,0.1-0.2,0.1-0.3,0.2c-0.1,0.1-0.1,0.1-0.2,0.1c-0.1,0-0.1,0-0.1,0c0,0-0.1-0.1-0.1-0.1l-0.2-0.3c0.3-0.3,0.5-0.4,0.9-0.6
			c0.3-0.1,0.6-0.2,1-0.2c0.3,0,0.5,0,0.7,0.1c0.2,0.1,0.4,0.2,0.5,0.4c0.1,0.2,0.2,0.3,0.3,0.6c0.1,0.2,0.1,0.5,0.1,0.7V33.2z
			 M102.5,32.7c0.1,0,0.3,0,0.4,0c0.1,0,0.2-0.1,0.3-0.1c0.1-0.1,0.2-0.1,0.3-0.2c0.1-0.1,0.2-0.2,0.3-0.3v-1c-0.4,0-0.7,0-1,0.1
			s-0.5,0.1-0.7,0.2c-0.2,0.1-0.3,0.2-0.4,0.3c-0.1,0.1-0.1,0.2-0.1,0.4c0,0.1,0,0.2,0.1,0.3c0,0.1,0.1,0.2,0.2,0.2s0.2,0.1,0.2,0.1
			C102.3,32.7,102.4,32.7,102.5,32.7z"/>
	</g>
	<g>
		<path class="st1" d="M107.7,33.2v-4.8h0.5c0.1,0,0.2,0.1,0.2,0.2l0.1,0.5c0.2-0.2,0.4-0.4,0.6-0.5c0.2-0.1,0.5-0.2,0.8-0.2
			c0.3,0,0.6,0.1,0.8,0.3c0.2,0.2,0.3,0.4,0.4,0.7c0.1-0.2,0.2-0.3,0.3-0.4c0.1-0.1,0.2-0.2,0.4-0.3c0.1-0.1,0.3-0.1,0.4-0.2
			c0.2,0,0.3-0.1,0.5-0.1c0.3,0,0.5,0,0.7,0.1c0.2,0.1,0.4,0.2,0.5,0.4c0.1,0.2,0.2,0.3,0.3,0.6c0.1,0.2,0.1,0.5,0.1,0.8v3h-0.8v-3
			c0-0.4-0.1-0.7-0.2-0.8c-0.2-0.2-0.4-0.3-0.7-0.3c-0.1,0-0.3,0-0.4,0.1c-0.1,0-0.2,0.1-0.3,0.2c-0.1,0.1-0.2,0.2-0.2,0.4
			c-0.1,0.1-0.1,0.3-0.1,0.5v3h-0.8v-3c0-0.4-0.1-0.7-0.2-0.9c-0.2-0.2-0.4-0.3-0.7-0.3c-0.2,0-0.4,0.1-0.6,0.2
			c-0.2,0.1-0.3,0.3-0.5,0.5v3.6H107.7z"/>
	</g>
	<g>
		<path class="st1" d="M119,33.2h-0.4c-0.1,0-0.1,0-0.2,0c-0.1,0-0.1-0.1-0.1-0.2l-0.1-0.4c-0.1,0.1-0.2,0.2-0.4,0.3
			c-0.1,0.1-0.2,0.2-0.4,0.2c-0.1,0.1-0.3,0.1-0.4,0.1c-0.1,0-0.3,0-0.5,0c-0.2,0-0.4,0-0.5-0.1c-0.2-0.1-0.3-0.1-0.4-0.2
			c-0.1-0.1-0.2-0.2-0.3-0.4c-0.1-0.2-0.1-0.3-0.1-0.6c0-0.2,0.1-0.4,0.2-0.5c0.1-0.2,0.3-0.3,0.5-0.5c0.2-0.1,0.5-0.2,0.9-0.3
			c0.4-0.1,0.8-0.1,1.4-0.1v-0.4c0-0.4-0.1-0.7-0.2-0.8c-0.2-0.2-0.4-0.3-0.7-0.3c-0.2,0-0.4,0-0.5,0.1c-0.1,0.1-0.3,0.1-0.4,0.2
			c-0.1,0.1-0.2,0.1-0.3,0.2c-0.1,0.1-0.1,0.1-0.2,0.1c-0.1,0-0.1,0-0.1,0c0,0-0.1-0.1-0.1-0.1l-0.2-0.3c0.3-0.3,0.5-0.4,0.9-0.6
			c0.3-0.1,0.6-0.2,1-0.2c0.3,0,0.5,0,0.7,0.1c0.2,0.1,0.4,0.2,0.5,0.4c0.1,0.2,0.2,0.3,0.3,0.6c0.1,0.2,0.1,0.5,0.1,0.7V33.2z
			 M116.8,32.7c0.1,0,0.3,0,0.4,0c0.1,0,0.2-0.1,0.3-0.1c0.1-0.1,0.2-0.1,0.3-0.2c0.1-0.1,0.2-0.2,0.3-0.3v-1c-0.4,0-0.7,0-1,0.1
			s-0.5,0.1-0.7,0.2c-0.2,0.1-0.3,0.2-0.4,0.3c-0.1,0.1-0.1,0.2-0.1,0.4c0,0.1,0,0.2,0.1,0.3c0,0.1,0.1,0.2,0.2,0.2s0.2,0.1,0.2,0.1
			C116.6,32.7,116.7,32.7,116.8,32.7z M118.6,26.4l-1.1,1.2c0,0-0.1,0.1-0.1,0.1c0,0-0.1,0-0.2,0h-0.5l0.7-1.1
			c0-0.1,0.1-0.1,0.1-0.2c0.1,0,0.1,0,0.2,0H118.6z"/>
	</g>
	<g>
		<path class="st1" d="M123,29.2c0,0.1-0.1,0.1-0.2,0.1c0,0-0.1,0-0.2-0.1c-0.1,0-0.1-0.1-0.2-0.1c-0.1,0-0.2-0.1-0.3-0.1
			c-0.1,0-0.3-0.1-0.4-0.1c-0.1,0-0.3,0-0.4,0.1c-0.1,0-0.2,0.1-0.3,0.1c-0.1,0.1-0.1,0.1-0.2,0.2c0,0.1-0.1,0.2-0.1,0.3
			c0,0.1,0,0.2,0.1,0.3c0.1,0.1,0.2,0.2,0.3,0.2c0.1,0.1,0.2,0.1,0.4,0.2s0.3,0.1,0.5,0.1c0.2,0.1,0.3,0.1,0.5,0.2
			c0.1,0.1,0.3,0.1,0.4,0.2c0.1,0.1,0.2,0.2,0.3,0.3c0.1,0.1,0.1,0.3,0.1,0.5c0,0.2,0,0.4-0.1,0.6c-0.1,0.2-0.2,0.3-0.3,0.5
			c-0.2,0.1-0.3,0.2-0.6,0.3c-0.2,0.1-0.5,0.1-0.8,0.1c-0.3,0-0.6-0.1-0.9-0.2c-0.3-0.1-0.5-0.2-0.7-0.4l0.2-0.3
			c0,0,0.1-0.1,0.1-0.1c0,0,0.1,0,0.1,0s0.1,0,0.2,0.1c0.1,0,0.1,0.1,0.2,0.1c0.1,0.1,0.2,0.1,0.3,0.1c0.1,0,0.3,0.1,0.5,0.1
			c0.2,0,0.3,0,0.4-0.1c0.1,0,0.2-0.1,0.3-0.2c0.1-0.1,0.1-0.2,0.2-0.2c0-0.1,0.1-0.2,0.1-0.3c0-0.1,0-0.2-0.1-0.3s-0.2-0.2-0.3-0.2
			c-0.1-0.1-0.2-0.1-0.4-0.2c-0.1,0-0.3-0.1-0.5-0.1c-0.2-0.1-0.3-0.1-0.5-0.2c-0.1-0.1-0.3-0.1-0.4-0.2c-0.1-0.1-0.2-0.2-0.3-0.4
			c-0.1-0.1-0.1-0.3-0.1-0.5c0-0.2,0-0.4,0.1-0.5c0.1-0.2,0.2-0.3,0.3-0.4c0.1-0.1,0.3-0.2,0.5-0.3s0.5-0.1,0.7-0.1
			c0.3,0,0.6,0,0.8,0.1c0.2,0.1,0.5,0.2,0.6,0.4L123,29.2z"/>
	</g>
	<g>
		<path class="st1" d="M126.1,34.8v-6.4h0.5c0.1,0,0.2,0.1,0.2,0.2l0.1,0.6c0.2-0.2,0.4-0.4,0.7-0.6c0.3-0.2,0.6-0.2,0.9-0.2
			c0.3,0,0.5,0.1,0.7,0.2c0.2,0.1,0.4,0.3,0.6,0.5c0.2,0.2,0.3,0.5,0.4,0.8c0.1,0.3,0.1,0.7,0.1,1.1c0,0.4,0,0.7-0.1,1
			c-0.1,0.3-0.2,0.6-0.4,0.8c-0.2,0.2-0.4,0.4-0.6,0.5c-0.3,0.1-0.5,0.2-0.9,0.2c-0.3,0-0.5,0-0.8-0.1c-0.2-0.1-0.4-0.2-0.6-0.4v2.1
			H126.1z M128.3,29c-0.3,0-0.5,0.1-0.7,0.2c-0.2,0.1-0.4,0.3-0.6,0.5v2.3c0.2,0.2,0.3,0.4,0.5,0.4c0.2,0.1,0.4,0.1,0.6,0.1
			c0.4,0,0.8-0.2,1-0.5c0.2-0.3,0.4-0.8,0.4-1.4c0-0.3,0-0.6-0.1-0.8c-0.1-0.2-0.1-0.4-0.2-0.5c-0.1-0.1-0.2-0.2-0.4-0.3
			C128.6,29.1,128.5,29,128.3,29z"/>
	</g>
	<g>
		<path class="st1" d="M133.2,28.4c0.3,0,0.5,0,0.8,0.1s0.5,0.2,0.6,0.4c0.2,0.2,0.3,0.4,0.4,0.7c0.1,0.3,0.1,0.6,0.1,0.9
			c0,0.1,0,0.2,0,0.3c0,0-0.1,0.1-0.2,0.1h-3.2c0,0.3,0,0.6,0.1,0.8s0.2,0.4,0.3,0.6c0.1,0.1,0.3,0.3,0.5,0.3
			c0.2,0.1,0.4,0.1,0.6,0.1c0.2,0,0.4,0,0.5-0.1c0.2,0,0.3-0.1,0.4-0.2c0.1-0.1,0.2-0.1,0.3-0.2c0.1,0,0.1-0.1,0.2-0.1
			c0.1,0,0.1,0,0.2,0.1l0.2,0.3c-0.1,0.1-0.2,0.2-0.4,0.3c-0.1,0.1-0.3,0.2-0.5,0.2c-0.2,0.1-0.3,0.1-0.5,0.1c-0.2,0-0.3,0-0.5,0
			c-0.3,0-0.6-0.1-0.9-0.2c-0.3-0.1-0.5-0.3-0.7-0.5c-0.2-0.2-0.4-0.5-0.5-0.8c-0.1-0.3-0.2-0.7-0.2-1.1c0-0.3,0.1-0.6,0.2-0.9
			c0.1-0.3,0.2-0.5,0.4-0.8s0.4-0.4,0.7-0.5C132.6,28.4,132.9,28.4,133.2,28.4z M133.2,29c-0.4,0-0.7,0.1-1,0.4
			c-0.2,0.2-0.4,0.6-0.4,1h2.6c0-0.2,0-0.4-0.1-0.5c-0.1-0.2-0.1-0.3-0.2-0.4c-0.1-0.1-0.2-0.2-0.4-0.3C133.6,29,133.4,29,133.2,29z
			"/>
	</g>
	<g>
		<path class="st1" d="M136.3,33.2v-4.8h0.5c0.1,0,0.2,0,0.2,0.1c0,0,0.1,0.1,0.1,0.2l0.1,0.7c0.2-0.3,0.4-0.6,0.6-0.8
			s0.5-0.3,0.8-0.3c0.1,0,0.3,0,0.4,0s0.2,0.1,0.3,0.1l-0.1,0.6c0,0.1-0.1,0.1-0.1,0.1c0,0-0.1,0-0.2,0c-0.1,0-0.2,0-0.4,0
			c-0.3,0-0.5,0.1-0.7,0.3c-0.2,0.2-0.4,0.4-0.5,0.7v3H136.3z"/>
	</g>
	<g>
		<path class="st1" d="M142.8,29.2c0,0.1-0.1,0.1-0.2,0.1c0,0-0.1,0-0.2-0.1c-0.1,0-0.1-0.1-0.2-0.1c-0.1,0-0.2-0.1-0.3-0.1
			c-0.1,0-0.3-0.1-0.4-0.1c-0.1,0-0.3,0-0.4,0.1c-0.1,0-0.2,0.1-0.3,0.1c-0.1,0.1-0.1,0.1-0.2,0.2c0,0.1-0.1,0.2-0.1,0.3
			c0,0.1,0,0.2,0.1,0.3c0.1,0.1,0.2,0.2,0.3,0.2c0.1,0.1,0.2,0.1,0.4,0.2c0.1,0,0.3,0.1,0.5,0.1c0.2,0.1,0.3,0.1,0.5,0.2
			c0.1,0.1,0.3,0.1,0.4,0.2c0.1,0.1,0.2,0.2,0.3,0.3c0.1,0.1,0.1,0.3,0.1,0.5c0,0.2,0,0.4-0.1,0.6c-0.1,0.2-0.2,0.3-0.3,0.5
			c-0.2,0.1-0.3,0.2-0.6,0.3c-0.2,0.1-0.5,0.1-0.8,0.1c-0.3,0-0.6-0.1-0.9-0.2c-0.3-0.1-0.5-0.2-0.7-0.4l0.2-0.3
			c0,0,0.1-0.1,0.1-0.1c0,0,0.1,0,0.1,0c0.1,0,0.1,0,0.2,0.1c0.1,0,0.1,0.1,0.2,0.1c0.1,0.1,0.2,0.1,0.3,0.1c0.1,0,0.3,0.1,0.5,0.1
			c0.2,0,0.3,0,0.4-0.1c0.1,0,0.2-0.1,0.3-0.2c0.1-0.1,0.1-0.2,0.2-0.2c0-0.1,0.1-0.2,0.1-0.3c0-0.1,0-0.2-0.1-0.3s-0.2-0.2-0.3-0.2
			c-0.1-0.1-0.2-0.1-0.4-0.2c-0.1,0-0.3-0.1-0.5-0.1c-0.2-0.1-0.3-0.1-0.5-0.2c-0.1-0.1-0.3-0.1-0.4-0.2c-0.1-0.1-0.2-0.2-0.3-0.4
			c-0.1-0.1-0.1-0.3-0.1-0.5c0-0.2,0-0.4,0.1-0.5c0.1-0.2,0.2-0.3,0.3-0.4c0.1-0.1,0.3-0.2,0.5-0.3c0.2-0.1,0.5-0.1,0.7-0.1
			c0.3,0,0.6,0,0.8,0.1c0.2,0.1,0.5,0.2,0.6,0.4L142.8,29.2z"/>
	</g>
	<g>
		<path class="st1" d="M146.1,28.4c0.3,0,0.7,0.1,0.9,0.2c0.3,0.1,0.5,0.3,0.7,0.5s0.3,0.5,0.5,0.8c0.1,0.3,0.2,0.6,0.2,1
			c0,0.4-0.1,0.7-0.2,1c-0.1,0.3-0.3,0.6-0.5,0.8s-0.4,0.4-0.7,0.5c-0.3,0.1-0.6,0.2-0.9,0.2c-0.3,0-0.7-0.1-0.9-0.2
			c-0.3-0.1-0.5-0.3-0.7-0.5c-0.2-0.2-0.4-0.5-0.5-0.8c-0.1-0.3-0.2-0.6-0.2-1c0-0.4,0.1-0.7,0.2-1c0.1-0.3,0.3-0.6,0.5-0.8
			c0.2-0.2,0.4-0.4,0.7-0.5C145.4,28.4,145.7,28.4,146.1,28.4z M146.1,32.6c0.5,0,0.8-0.2,1.1-0.5c0.2-0.3,0.3-0.8,0.3-1.3
			c0-0.6-0.1-1-0.3-1.3c-0.2-0.3-0.6-0.5-1.1-0.5c-0.2,0-0.4,0-0.6,0.1c-0.2,0.1-0.3,0.2-0.4,0.4c-0.1,0.2-0.2,0.3-0.3,0.6
			s-0.1,0.5-0.1,0.8s0,0.5,0.1,0.8s0.1,0.4,0.3,0.6c0.1,0.2,0.3,0.3,0.4,0.4C145.6,32.6,145.8,32.6,146.1,32.6z"/>
	</g>
	<g>
		<path class="st1" d="M149.4,33.2v-4.8h0.5c0.1,0,0.2,0.1,0.2,0.2l0.1,0.5c0.2-0.2,0.4-0.4,0.7-0.6c0.3-0.1,0.6-0.2,0.9-0.2
			c0.3,0,0.5,0,0.7,0.1c0.2,0.1,0.4,0.2,0.5,0.4c0.1,0.2,0.2,0.3,0.3,0.6s0.1,0.5,0.1,0.7v3h-0.8v-3c0-0.4-0.1-0.6-0.2-0.8
			c-0.2-0.2-0.4-0.3-0.8-0.3c-0.2,0-0.5,0.1-0.7,0.2c-0.2,0.1-0.4,0.3-0.6,0.5v3.5H149.4z"/>
	</g>
	<g>
		<path class="st1" d="M158.1,33.2h-0.4c-0.1,0-0.1,0-0.2,0c-0.1,0-0.1-0.1-0.1-0.2l-0.1-0.4c-0.1,0.1-0.2,0.2-0.4,0.3
			c-0.1,0.1-0.2,0.2-0.4,0.2c-0.1,0.1-0.3,0.1-0.4,0.1c-0.1,0-0.3,0-0.5,0c-0.2,0-0.4,0-0.5-0.1c-0.2-0.1-0.3-0.1-0.4-0.2
			c-0.1-0.1-0.2-0.2-0.3-0.4c-0.1-0.2-0.1-0.3-0.1-0.6c0-0.2,0.1-0.4,0.2-0.5c0.1-0.2,0.3-0.3,0.5-0.5c0.2-0.1,0.5-0.2,0.9-0.3
			c0.4-0.1,0.8-0.1,1.4-0.1v-0.4c0-0.4-0.1-0.7-0.2-0.8c-0.2-0.2-0.4-0.3-0.7-0.3c-0.2,0-0.4,0-0.5,0.1c-0.1,0.1-0.3,0.1-0.4,0.2
			c-0.1,0.1-0.2,0.1-0.3,0.2c-0.1,0.1-0.1,0.1-0.2,0.1c-0.1,0-0.1,0-0.1,0c0,0-0.1-0.1-0.1-0.1l-0.2-0.3c0.3-0.3,0.5-0.4,0.9-0.6
			c0.3-0.1,0.6-0.2,1-0.2c0.3,0,0.5,0,0.7,0.1c0.2,0.1,0.4,0.2,0.5,0.4c0.1,0.2,0.2,0.3,0.3,0.6c0.1,0.2,0.1,0.5,0.1,0.7V33.2z
			 M156,32.7c0.1,0,0.3,0,0.4,0c0.1,0,0.2-0.1,0.3-0.1c0.1-0.1,0.2-0.1,0.3-0.2c0.1-0.1,0.2-0.2,0.3-0.3v-1c-0.4,0-0.7,0-1,0.1
			c-0.3,0-0.5,0.1-0.7,0.2c-0.2,0.1-0.3,0.2-0.4,0.3c-0.1,0.1-0.1,0.2-0.1,0.4c0,0.1,0,0.2,0.1,0.3s0.1,0.2,0.2,0.2
			c0.1,0.1,0.2,0.1,0.2,0.1C155.7,32.7,155.8,32.7,156,32.7z"/>
	</g>
	<g>
		<path class="st1" d="M162.1,29.2c0,0.1-0.1,0.1-0.2,0.1c0,0-0.1,0-0.2-0.1c-0.1,0-0.1-0.1-0.2-0.1c-0.1,0-0.2-0.1-0.3-0.1
			c-0.1,0-0.3-0.1-0.4-0.1c-0.1,0-0.3,0-0.4,0.1c-0.1,0-0.2,0.1-0.3,0.1c-0.1,0.1-0.1,0.1-0.2,0.2c0,0.1-0.1,0.2-0.1,0.3
			c0,0.1,0,0.2,0.1,0.3c0.1,0.1,0.2,0.2,0.3,0.2c0.1,0.1,0.2,0.1,0.4,0.2c0.1,0,0.3,0.1,0.5,0.1c0.2,0.1,0.3,0.1,0.5,0.2
			c0.1,0.1,0.3,0.1,0.4,0.2c0.1,0.1,0.2,0.2,0.3,0.3c0.1,0.1,0.1,0.3,0.1,0.5c0,0.2,0,0.4-0.1,0.6c-0.1,0.2-0.2,0.3-0.3,0.5
			c-0.2,0.1-0.3,0.2-0.6,0.3c-0.2,0.1-0.5,0.1-0.8,0.1c-0.3,0-0.6-0.1-0.9-0.2c-0.3-0.1-0.5-0.2-0.7-0.4l0.2-0.3
			c0,0,0.1-0.1,0.1-0.1c0,0,0.1,0,0.1,0c0.1,0,0.1,0,0.2,0.1c0.1,0,0.1,0.1,0.2,0.1c0.1,0.1,0.2,0.1,0.3,0.1c0.1,0,0.3,0.1,0.5,0.1
			c0.2,0,0.3,0,0.4-0.1c0.1,0,0.2-0.1,0.3-0.2c0.1-0.1,0.1-0.2,0.2-0.2c0-0.1,0.1-0.2,0.1-0.3c0-0.1,0-0.2-0.1-0.3s-0.2-0.2-0.3-0.2
			c-0.1-0.1-0.2-0.1-0.4-0.2c-0.1,0-0.3-0.1-0.5-0.1c-0.2-0.1-0.3-0.1-0.5-0.2c-0.1-0.1-0.3-0.1-0.4-0.2c-0.1-0.1-0.2-0.2-0.3-0.4
			c-0.1-0.1-0.1-0.3-0.1-0.5c0-0.2,0-0.4,0.1-0.5c0.1-0.2,0.2-0.3,0.3-0.4c0.1-0.1,0.3-0.2,0.5-0.3c0.2-0.1,0.5-0.1,0.7-0.1
			c0.3,0,0.6,0,0.8,0.1c0.2,0.1,0.5,0.2,0.6,0.4L162.1,29.2z"/>
	</g>
</g>
<g id="XMLID_185_">
	<g id="XMLID_187_">
		<g>
			<path class="st1" d="M54.7,18c0,0.9-0.2,1.8-0.5,2.6c-0.3,0.8-0.8,1.5-1.3,2c-0.6,0.6-1.3,1-2.1,1.3c-0.8,0.3-1.7,0.5-2.7,0.5h-5
				V11.6h5c1,0,1.9,0.2,2.7,0.5c0.8,0.3,1.5,0.8,2.1,1.3c0.6,0.6,1,1.2,1.3,2C54.5,16.2,54.7,17.1,54.7,18z M51.6,18
				c0-0.6-0.1-1.2-0.2-1.7c-0.2-0.5-0.4-0.9-0.7-1.3c-0.3-0.4-0.7-0.6-1.1-0.8c-0.4-0.2-0.9-0.3-1.5-0.3h-2v8.2h2
				c0.6,0,1.1-0.1,1.5-0.3c0.4-0.2,0.8-0.5,1.1-0.8c0.3-0.4,0.5-0.8,0.7-1.3C51.6,19.2,51.6,18.6,51.6,18z"/>
		</g>
		<g>
			<path class="st1" d="M68.9,24.4h-2.3c-0.3,0-0.5-0.1-0.6-0.2c-0.2-0.1-0.3-0.3-0.3-0.5l-0.8-2.2H60l-0.8,2.2
				c-0.1,0.2-0.2,0.3-0.3,0.4c-0.2,0.1-0.4,0.2-0.6,0.2h-2.3l4.9-12.8h3L68.9,24.4z M60.7,19.5h3.5L63,16c-0.1-0.2-0.2-0.5-0.3-0.8
				c-0.1-0.3-0.2-0.6-0.3-1c-0.1,0.4-0.2,0.7-0.3,1c-0.1,0.3-0.2,0.6-0.3,0.8L60.7,19.5z"/>
		</g>
		<g>
			<path class="st1" d="M79.2,11.6V14h-3.6v10.4h-3V14H69v-2.3H79.2z"/>
		</g>
		<g>
			<path class="st1" d="M92.3,24.4H90c-0.3,0-0.5-0.1-0.6-0.2c-0.2-0.1-0.3-0.3-0.3-0.5l-0.8-2.2h-4.9l-0.8,2.2
				c-0.1,0.2-0.2,0.3-0.3,0.4c-0.2,0.1-0.4,0.2-0.6,0.2h-2.3l4.9-12.8h3L92.3,24.4z M84.1,19.5h3.5L86.4,16
				c-0.1-0.2-0.2-0.5-0.3-0.8c-0.1-0.3-0.2-0.6-0.3-1c-0.1,0.4-0.2,0.7-0.3,1c-0.1,0.3-0.2,0.6-0.3,0.8L84.1,19.5z"/>
		</g>
	</g>
	<g id="XMLID_186_">
		<g>
			<path class="st2" d="M103.7,21.1c0.1,0,0.1,0,0.2,0c0.1,0,0.1,0.1,0.2,0.1l1.2,1.2c-0.5,0.7-1.2,1.2-1.9,1.5
				c-0.8,0.3-1.7,0.5-2.7,0.5c-1,0-1.8-0.2-2.6-0.5c-0.8-0.3-1.4-0.8-2-1.4c-0.5-0.6-0.9-1.3-1.2-2.1c-0.3-0.8-0.4-1.7-0.4-2.6
				c0-1,0.2-1.8,0.5-2.6c0.3-0.8,0.8-1.5,1.4-2.1c0.6-0.6,1.3-1,2.1-1.3c0.8-0.3,1.7-0.5,2.7-0.5c0.5,0,0.9,0,1.4,0.1
				c0.4,0.1,0.8,0.2,1.2,0.4c0.4,0.1,0.7,0.3,1,0.5c0.3,0.2,0.6,0.4,0.8,0.7l-1,1.3c-0.1,0.1-0.1,0.2-0.2,0.2
				c-0.1,0.1-0.2,0.1-0.4,0.1c-0.1,0-0.2,0-0.3-0.1c-0.1,0-0.2-0.1-0.3-0.2c-0.1-0.1-0.2-0.1-0.3-0.2c-0.1-0.1-0.3-0.2-0.4-0.2
				s-0.4-0.1-0.6-0.2s-0.5-0.1-0.8-0.1c-0.5,0-1,0.1-1.5,0.3c-0.4,0.2-0.8,0.5-1.1,0.8s-0.6,0.8-0.7,1.3c-0.2,0.5-0.3,1.1-0.3,1.7
				c0,0.7,0.1,1.2,0.3,1.7c0.2,0.5,0.4,0.9,0.7,1.3c0.3,0.3,0.7,0.6,1.1,0.8c0.4,0.2,0.8,0.3,1.3,0.3c0.3,0,0.5,0,0.7,0
				c0.2,0,0.4-0.1,0.6-0.1c0.2-0.1,0.4-0.1,0.5-0.2c0.2-0.1,0.3-0.2,0.5-0.4c0.1-0.1,0.1-0.1,0.2-0.1S103.7,21.1,103.7,21.1z"/>
		</g>
		<g>
			<path class="st2" d="M111.3,24.4h-3V11.6h3V24.4z"/>
		</g>
		<g>
			<path class="st2" d="M114,11.6h2.4c0.3,0,0.5,0.1,0.6,0.2c0.2,0.1,0.3,0.3,0.4,0.5l2.5,6.8c0.1,0.3,0.2,0.6,0.3,1
				c0.1,0.4,0.2,0.7,0.3,1.1c0.1-0.4,0.2-0.8,0.3-1.1c0.1-0.4,0.2-0.7,0.3-1l2.5-6.8c0.1-0.2,0.2-0.3,0.3-0.4
				c0.2-0.1,0.4-0.2,0.6-0.2h2.4l-5.1,12.8h-2.7L114,11.6z"/>
		</g>
		<g>
			<path class="st2" d="M132.6,24.4h-3V11.6h3V24.4z"/>
		</g>
		<g>
			<path class="st2" d="M145,21.1c0.1,0,0.1,0,0.2,0c0.1,0,0.1,0.1,0.2,0.1l1.2,1.2c-0.5,0.7-1.2,1.2-1.9,1.5
				c-0.8,0.3-1.7,0.5-2.7,0.5c-1,0-1.8-0.2-2.6-0.5c-0.8-0.3-1.4-0.8-2-1.4c-0.5-0.6-0.9-1.3-1.2-2.1c-0.3-0.8-0.4-1.7-0.4-2.6
				c0-1,0.2-1.8,0.5-2.6c0.3-0.8,0.8-1.5,1.4-2.1c0.6-0.6,1.3-1,2.1-1.3c0.8-0.3,1.7-0.5,2.7-0.5c0.5,0,0.9,0,1.4,0.1
				c0.4,0.1,0.8,0.2,1.2,0.4c0.4,0.1,0.7,0.3,1,0.5c0.3,0.2,0.6,0.4,0.8,0.7l-1,1.3c-0.1,0.1-0.1,0.2-0.2,0.2
				c-0.1,0.1-0.2,0.1-0.4,0.1c-0.1,0-0.2,0-0.3-0.1c-0.1,0-0.2-0.1-0.3-0.2c-0.1-0.1-0.2-0.1-0.3-0.2c-0.1-0.1-0.3-0.2-0.4-0.2
				s-0.4-0.1-0.6-0.2c-0.2,0-0.5-0.1-0.8-0.1c-0.5,0-1,0.1-1.5,0.3c-0.4,0.2-0.8,0.5-1.1,0.8c-0.3,0.4-0.6,0.8-0.7,1.3
				c-0.2,0.5-0.3,1.1-0.3,1.7c0,0.7,0.1,1.2,0.3,1.7c0.2,0.5,0.4,0.9,0.7,1.3c0.3,0.3,0.7,0.6,1.1,0.8c0.4,0.2,0.8,0.3,1.3,0.3
				c0.3,0,0.5,0,0.7,0c0.2,0,0.4-0.1,0.6-0.1c0.2-0.1,0.4-0.1,0.5-0.2c0.2-0.1,0.3-0.2,0.5-0.4c0.1-0.1,0.1-0.1,0.2-0.1
				C144.8,21.1,144.9,21.1,145,21.1z"/>
		</g>
		<g>
			<path class="st2" d="M161.2,24.4h-2.3c-0.3,0-0.5-0.1-0.6-0.2c-0.2-0.1-0.3-0.3-0.3-0.5l-0.8-2.2h-4.9l-0.8,2.2
				c-0.1,0.2-0.2,0.3-0.3,0.4c-0.2,0.1-0.4,0.2-0.6,0.2h-2.3l4.9-12.8h3L161.2,24.4z M153,19.5h3.5l-1.2-3.5
				c-0.1-0.2-0.2-0.5-0.3-0.8c-0.1-0.3-0.2-0.6-0.3-1c-0.1,0.4-0.2,0.7-0.3,1c-0.1,0.3-0.2,0.6-0.3,0.8L153,19.5z"/>
		</g>
	</g>
</g>
<g id="XMLID_184_">
	<path class="st3" d="M18.6,33.3c-0.5,0-1-0.1-1.5-0.4h0L6.3,26.6c-0.9-0.5-1.5-1.5-1.5-2.6s0.6-2,1.5-2.6l10.8-6.2
		c0.9-0.5,2.1-0.5,3,0c0.9,0.5,1.5,1.5,1.5,2.6v12.5c0,1.1-0.6,2-1.5,2.6C19.7,33.2,19.2,33.3,18.6,33.3z M18.4,30.7
		c0.2,0.1,0.4,0.1,0.5,0c0.1-0.1,0.2-0.2,0.2-0.4V17.8c0-0.3-0.2-0.4-0.2-0.4c-0.1-0.1-0.3-0.1-0.5,0L7.6,23.6
		c-0.2,0.1-0.2,0.3-0.2,0.4c0,0.1,0,0.3,0.2,0.4L18.4,30.7z"/>
</g>
<g id="XMLID_182_">
	<path class="st2" d="M16.4,28c-0.5,0-1-0.1-1.5-0.4C14,27,13.4,26.1,13.4,25V12.5c0-1.1,0.6-2,1.5-2.6c0.9-0.5,2.1-0.5,3,0
		l10.8,6.2c0.9,0.5,1.5,1.5,1.5,2.6s-0.6,2-1.5,2.6l-10.8,6.2C17.5,27.8,16.9,28,16.4,28z M16.4,12c-0.1,0-0.2,0-0.3,0.1
		c-0.1,0.1-0.2,0.2-0.2,0.4V25c0,0.3,0.2,0.4,0.2,0.4c0.1,0.1,0.3,0.1,0.5,0l10.8-6.2c0.2-0.1,0.2-0.3,0.2-0.4c0-0.1,0-0.3-0.2-0.4
		l-10.8-6.2C16.6,12,16.5,12,16.4,12z"/>
</g>
<g>
	<path class="st4" d="M112.9,7.6L112.9,7.6c-1.9,0-3.6,1.1-4.5,2.7l-0.1,0.1h1.7c0.9,0,1.7-0.5,2-1.3L112.9,7.6z"/>
</g>
</svg>
